# File created by Blade
# Date/Time:  Mon Sep 22 17:23:16 2014
# Frame Rate: 120.000 fps
#------------------------------------------------------
:FULLY-SPECIFIED
:DEGREES
2841
root 0.371782 38.965286 0.328546 12.568190 -18.084745 -39.426379
RightUpLeg -2.154824 -22.860430 -36.435380
RightLeg 114.571045 -0.000000 -0.000000
RightFoot 9.449046 -20.197044 14.458546
RightToeBase 2.639881 -0.000000 -0.000000
LeftUpLeg 1.118634 9.620861 32.095728
LeftLeg 17.869879 -0.000000 -0.000000
LeftFoot -24.587719 19.391133 -19.027599
LeftToeBase 3.315526 -0.000000 -0.000000
Spine 7.826032 -12.143020 9.235971
RightShoulder -4.775754 -34.549327 -0.352010
RightArm 24.948490 -21.024745 57.527842
RightForeArm -185.693677 -0.000000 111.340356
RightHand 96.014662 -0.000000 -169.112405
RightHandThumb1 -24.326973 -0.000000 -32.862282
LeftShoulder -20.881509 33.021436 6.448973
LeftArm 60.745928 -30.599066 -64.316498
LeftForeArm 62.119339 -0.000000 125.255282
LeftHand -26.618538 -0.000000 -20.123410
LeftHandThumb1 -26.253704 0.000000 33.147579
Head 7.431584 30.622688 32.419970
2842
root 0.358861 38.983209 0.334232 12.674198 -17.984189 -39.644486
RightUpLeg -2.010574 -22.860969 -36.417354
RightLeg 114.640681 -0.000000 -0.000000
RightFoot 9.472240 -20.117890 14.525341
RightToeBase 2.639253 -0.000000 -0.000000
LeftUpLeg 1.112357 9.672950 32.354343
LeftLeg 17.781193 -0.000000 -0.000000
LeftFoot -24.520458 19.334373 -19.018991
LeftToeBase 3.307411 -0.000000 -0.000000
Spine 7.805553 -12.207377 9.416355
RightShoulder -4.766008 -34.566205 -0.378067
RightArm 24.965689 -21.009639 57.523637
RightForeArm -185.636449 -0.000000 111.317515
RightHand 96.026918 -0.000000 -169.189395
RightHandThumb1 -24.326973 -0.000000 -32.862282
LeftShoulder -20.889769 33.018942 6.407607
LeftArm 60.777562 -30.623295 -64.351491
LeftForeArm 62.096345 -0.000000 125.388903
LeftHand -26.634552 -0.000000 -20.087251
LeftHandThumb1 -26.253704 0.000000 33.147579
Head 7.622602 30.721205 32.622038
2843
root 0.348218 38.999850 0.340107 12.786352 -17.899910 -39.808593
RightUpLeg -1.895708 -22.844110 -36.440751
RightLeg 114.737957 -0.000000 -0.000000
RightFoot 9.561138 -19.999219 14.498320
RightToeBase 2.552066 -0.000000 -0.000000
LeftUpLeg 1.075560 9.703496 32.542445
LeftLeg 17.712212 -0.000000 -0.000000
LeftFoot -24.457295 19.306967 -19.041872
LeftToeBase 3.268007 -0.000000 -0.000000
Spine 7.732695 -12.247595 9.514976
RightShoulder -4.757686 -34.552296 -0.356345
RightArm 24.924500 -21.008187 57.517679
RightForeArm -185.557632 -0.000000 111.293152
RightHand 96.031617 -0.000000 -169.218656
RightHandThumb1 -24.326973 -0.000000 -32.862282
LeftShoulder -20.867589 33.113513 6.403707
LeftArm 60.862590 -30.675737 -64.405880
LeftForeArm 62.092473 0.000000 125.522046
LeftHand -26.609329 -0.000000 -20.089652
LeftHandThumb1 -26.253704 0.000000 33.147579
Head 7.809355 30.477787 32.713411
2844
root 0.338659 39.014236 0.346985 12.888337 -17.812066 -39.960667
RightUpLeg -1.769176 -22.783664 -36.464451
RightLeg 114.842429 -0.000000 -0.000000
RightFoot 9.543200 -19.904460 14.716201
RightToeBase 2.642055 -0.000000 -0.000000
LeftUpLeg 1.022581 9.720776 32.724835
LeftLeg 17.683651 -0.000000 -0.000000
LeftFoot -24.394711 19.244748 -19.051850
LeftToeBase 3.224200 -0.000000 -0.000000
Spine 7.654826 -12.312833 9.609359
RightShoulder -4.756072 -34.550906 -0.358643
RightArm 24.937272 -21.034093 57.506285
RightForeArm -185.526095 0.000000 111.252437
RightHand 96.001993 -0.000000 -169.231789
RightHandThumb1 -24.326973 -0.000000 -32.862282
LeftShoulder -20.841148 33.156387 6.424664
LeftArm 60.863858 -30.696699 -64.388976
LeftForeArm 62.031889 0.000000 125.623894
LeftHand -26.637961 -0.000000 -20.045563
LeftHandThumb1 -26.253704 0.000000 33.147579
Head 8.068495 30.358499 32.874964
2845
root 0.325329 39.030628 0.354890 12.976438 -17.712422 -40.156769
RightUpLeg -1.615340 -22.695883 -36.419717
RightLeg 114.939917 -0.000000 -0.000000
RightFoot 9.592862 -19.835149 14.724084
RightToeBase 2.718349 -0.000000 -0.000000
LeftUpLeg 1.001420 9.709447 32.959229
LeftLeg 17.643381 -0.000000 -0.000000
LeftFoot -24.341426 19.201393 -19.074627
LeftToeBase 3.166410 -0.000000 -0.000000
Spine 7.617717 -12.370175 9.756398
RightShoulder -4.807291 -34.572985 -0.336526
RightArm 25.002605 -21.043997 57.471715
RightForeArm -185.493977 -0.000000 111.220121
RightHand 96.015628 0.000000 -169.237575
RightHandThumb1 -24.326973 -0.000000 -32.862282
LeftShoulder -20.817298 33.149072 6.439105
LeftArm 60.858613 -30.697429 -64.330261
LeftForeArm 61.962806 -0.000000 125.694405
LeftHand -26.693817 -0.000000 -19.936044
LeftHandThumb1 -26.253704 0.000000 33.147579
Head 8.306591 30.244324 33.032374
2846
root 0.317101 39.041575 0.362249 13.047120 -17.660939 -40.276822
RightUpLeg -1.505444 -22.544070 -36.441437
RightLeg 115.071867 -0.000000 -0.000000
RightFoot 9.683963 -19.774001 14.701484
RightToeBase 2.709461 -0.000000 -0.000000
LeftUpLeg 0.979223 9.764623 33.102667
LeftLeg 17.625999 -0.000000 -0.000000
LeftFoot -24.283798 19.154843 -19.066048
LeftToeBase 3.136581 -0.000000 -0.000000
Spine 7.573200 -12.412019 9.802187
RightShoulder -4.799492 -34.554005 -0.345478
RightArm 24.997105 -21.063961 57.513393
RightForeArm -185.438367 -0.000000 111.197755
RightHand 96.049389 -0.000000 -169.274232
RightHandThumb1 -24.326973 -0.000000 -32.862282
LeftShoulder -20.781087 33.180745 6.457478
LeftArm 60.898000 -30.755167 -64.318630
LeftForeArm 61.956144 0.000000 125.766289
LeftHand -26.692167 -0.000000 -19.950416
LeftHandThumb1 -26.253704 0.000000 33.147579
Head 8.567496 30.191397 33.203810
2847
root 0.303504 39.055942 0.370234 13.128417 -17.577835 -40.468600
RightUpLeg -1.353866 -22.365291 -36.353474
RightLeg 115.184659 -0.000000 -0.000000
RightFoot 9.745680 -19.728118 14.698030
RightToeBase 2.673768 -0.000000 -0.000000
LeftUpLeg 0.957084 9.819566 33.336850
LeftLeg 17.616282 -0.000000 -0.000000
LeftFoot -24.203244 19.098044 -19.021286
LeftToeBase 3.022305 -0.000000 -0.000000
Spine 7.535811 -12.470097 9.934319
RightShoulder -4.780603 -34.481248 -0.368321
RightArm 24.916100 -21.108076 57.572708
RightForeArm -185.399710 0.000000 111.211582
RightHand 95.990573 -0.000000 -169.398045
RightHandThumb1 -24.326973 -0.000000 -32.862282
LeftShoulder -20.773233 33.160064 6.484515
LeftArm 60.910141 -30.747811 -64.272044
LeftForeArm 61.893341 -0.000000 125.807183
LeftHand -26.672061 -0.000000 -19.938917
LeftHandThumb1 -26.253704 0.000000 33.147579
Head 8.790762 30.068313 33.323501
2848
root 0.292161 39.068749 0.376805 13.211888 -17.489165 -40.655082
RightUpLeg -1.220512 -22.151942 -36.245080
RightLeg 115.314301 -0.000000 -0.000000
RightFoot 9.782909 -19.685883 14.741439
RightToeBase 2.748143 -0.000000 -0.000000
LeftUpLeg 0.916192 9.903735 33.564305
LeftLeg 17.620503 -0.000000 -0.000000
LeftFoot -24.139025 19.029146 -18.955498
LeftToeBase 2.968881 -0.000000 -0.000000
Spine 7.489053 -12.542903 10.084736
RightShoulder -4.774052 -34.476493 -0.395816
RightArm 24.921375 -21.114255 57.599555
RightForeArm -185.328859 -0.000000 111.218595
RightHand 95.968368 -0.000000 -169.441636
RightHandThumb1 -24.326973 -0.000000 -32.862282
LeftShoulder -20.755328 33.131648 6.490812
LeftArm 60.921172 -30.764539 -64.216528
LeftForeArm 61.749936 -0.000000 125.825424
LeftHand -26.623459 -0.000000 -19.902149
LeftHandThumb1 -26.253704 0.000000 33.147579
Head 9.043356 30.035163 33.427201
2849
root 0.280347 39.080740 0.383162 13.280474 -17.383309 -40.849305
RightUpLeg -1.045439 -21.889715 -36.106801
RightLeg 115.448435 -0.000000 -0.000000
RightFoot 9.824346 -19.626571 14.708622
RightToeBase 2.636573 -0.000000 -0.000000
LeftUpLeg 0.875147 9.962836 33.801576
LeftLeg 17.632783 -0.000000 -0.000000
LeftFoot -24.081474 18.974148 -18.905339
LeftToeBase 2.894012 -0.000000 -0.000000
Spine 7.469739 -12.622507 10.247977
RightShoulder -4.795193 -34.478437 -0.422221
RightArm 24.955361 -21.124769 57.623026
RightForeArm -185.318939 0.000000 111.236768
RightHand 95.957566 -0.000000 -169.459215
RightHandThumb1 -24.326973 -0.000000 -32.862282
LeftShoulder -20.719465 33.090045 6.519104
LeftArm 60.936587 -30.760388 -64.164853
LeftForeArm 61.655349 -0.000000 125.825868
LeftHand -26.656229 0.000000 -19.810774
LeftHandThumb1 -26.253704 0.000000 33.147579
Head 9.285304 30.114042 33.614832
2850
root 0.270553 39.090869 0.389960 13.322510 -17.291620 -40.989108
RightUpLeg -0.871957 -21.583730 -36.010048
RightLeg 115.591754 -0.000000 -0.000000
RightFoot 9.917589 -19.596696 14.705713
RightToeBase 2.571157 -0.000000 -0.000000
LeftUpLeg 0.844532 9.998244 33.977621
LeftLeg 17.644766 -0.000000 -0.000000
LeftFoot -24.035988 18.912832 -18.877873
LeftToeBase 2.790343 -0.000000 -0.000000
Spine 7.451964 -12.685579 10.322667
RightShoulder -4.777731 -34.465813 -0.422264
RightArm 24.913617 -21.102252 57.694382
RightForeArm -185.361532 -0.000000 111.275201
RightHand 96.018501 -0.000000 -169.213709
RightHandThumb1 -24.326973 -0.000000 -32.862282
LeftShoulder -20.675315 33.090255 6.584372
LeftArm 61.007457 -30.744006 -64.140029
LeftForeArm 61.608931 -0.000000 125.809760
LeftHand -26.714366 -0.000000 -19.833901
LeftHandThumb1 -26.253704 0.000000 33.147579
Head 9.461636 29.899634 33.630055
2851
root 0.262542 39.098558 0.395843 13.353963 -17.198858 -41.119182
RightUpLeg -0.688439 -21.223212 -35.907058
RightLeg 115.752323 -0.000000 -0.000000
RightFoot 9.959311 -19.571562 14.744893
RightToeBase 2.606253 -0.000000 -0.000000
LeftUpLeg 0.807862 9.987387 34.134486
LeftLeg 17.669857 -0.000000 -0.000000
LeftFoot -24.001780 18.913198 -18.808526
LeftToeBase 2.729176 -0.000000 -0.000000
Spine 7.460449 -12.731129 10.403066
RightShoulder -4.794256 -34.455807 -0.421673
RightArm 24.898027 -21.069016 57.763736
RightForeArm -185.550542 -0.000000 111.296279
RightHand 96.096391 -0.000000 -168.417468
RightHandThumb1 -24.326973 -0.000000 -32.862282
LeftShoulder -20.636726 33.064751 6.626277
LeftArm 61.097122 -30.736972 -64.084437
LeftForeArm 61.539347 -0.000000 125.772374
LeftHand -26.760410 0.000000 -19.917448
LeftHandThumb1 -26.253704 0.000000 33.147579
Head 9.616055 29.772536 33.674758
